<?xml version="1.0" encoding="UTF-8"?>
<svg width="205px" height="74px" viewBox="0 0 205 74" version="1.1" xmlns="http://www.w3.org/2000/svg" xmlns:xlink="http://www.w3.org/1999/xlink">
    <!-- Generator: Sketch 49.1 (51147) - http://www.bohemiancoding.com/sketch -->
    <title>@2xLOGO</title>
    <desc>Created with Sketch.</desc>
    <defs></defs>
    <g id="Page-1" stroke="none" stroke-width="1" fill="none" fill-rule="evenodd">
        <g id="POCKY" transform="translate(-615.000000, -53.000000)">
            <g id="LOGO" transform="translate(617.000000, 55.000000)">
                <circle id="Oval" stroke="#FFFFFF" stroke-width="4" cx="35" cy="35" r="35"></circle>
                <path d="M25.5909091,14.8808825 C28.9656193,13.0021151 32.8521372,11.9318182 36.9886364,11.9318182 C49.3732846,11.9318182 59.5171029,21.5259516 60.3931596,33.6872867 C59.9465313,30.3858491 57.1170578,27.8409091 53.6931818,27.8409091 C49.9589838,27.8409091 46.9318182,30.8680747 46.9318182,34.6022727 C46.9318182,38.3364708 49.9589838,41.3636364 53.6931818,41.3636364 C57.3343629,41.3636364 60.3032966,38.4854026 60.4489464,34.8799715 C60.4526727,35.0521066 60.4545455,35.2246982 60.4545455,35.3977273 C60.4545455,48.357591 49.9485001,58.8636364 36.9886364,58.8636364 C32.8521372,58.8636364 28.9656193,57.7933394 25.5909091,55.914572 L25.5909091,14.8808825 Z" id="Combined-Shape" fill="#FFFFFF"></path>
                <text id="OMI." font-family="ITCAvantGardeStd-Demi, ITC Avant Garde Gothic Std" font-size="48" font-weight="500" fill="#FFFFFF">
                    <tspan x="93.264" y="58">OMI.</tspan>
                </text>
            </g>
        </g>
    </g>
</svg>