<svg id="图层_1" data-name="图层 1" xmlns="http://www.w3.org/2000/svg" viewBox="0 0 18.79 6.89"><defs><style>.cls-1{fill:#fff;}</style></defs><title>bone1</title><path class="cls-1" d="M32.8,25.15a9.09,9.09,0,0,0,.84-.79,1.48,1.48,0,0,0,.29-2,1.7,1.7,0,0,0-1.9-.45,2.92,2.92,0,0,0-1,.71,9.15,9.15,0,0,0-.94.47.59.59,0,0,0-.26.26l-.78,0c-.76,0-1.53,0-2.29,0s-1.45.15-2.2.21a.56.56,0,0,0-.44-.26,7.6,7.6,0,0,0-1.65.12.58.58,0,0,0-.26.09h0c-.78-.09-1.49-.35-2.25-.5h0a7.19,7.19,0,0,0-1.13-.64,3.32,3.32,0,0,0-1.95-.58.42.42,0,0,0-.2.1.49.49,0,0,0-.46.28,1.06,1.06,0,0,0-.13.39,1,1,0,0,0,0,.55,1.8,1.8,0,0,0,.44.77,2.2,2.2,0,0,0,.75.57l.24.11a8.4,8.4,0,0,0-.76.7,2.69,2.69,0,0,0-.74.9,1.62,1.62,0,0,0,.2,1.17,1,1,0,0,0,.94.41.66.66,0,0,0,.29.09.92.92,0,0,0,.39-.07.73.73,0,0,0,.43-.07,3.17,3.17,0,0,0,.62-.47,12.3,12.3,0,0,1,1-.77,5.61,5.61,0,0,1,2.42-.59l.94-.07,0,.07.25-.06a.22.22,0,0,0,.16.06,1.41,1.41,0,0,1,.27-.05.64.64,0,0,1,.26.13,1.1,1.1,0,0,0,.87.05l0,0c.65-.06,1.31-.12,2-.14a15.26,15.26,0,0,0,2.32-.08.74.74,0,0,0,.63.28c.33,0,.53.55.76.77.49.43,1.23,1.26,1.93,1.26h0c1,.24,1.5-.67,1.54-1.57C34.22,25.84,33.49,25.27,32.8,25.15Z" transform="translate(-15.61 -21.56)"/><path d="M16.82,24.93c-1,.49-1.7,2-.78,2.92a2,2,0,0,0,1.74.24,4,4,0,0,0,1.87-1.42c.68-.77,1.92-.58,2.83-.57s2,0,3.06,0,1.84,0,2.77-.09a2.6,2.6,0,0,1,1.71.35c.27.24.41.71.64,1,.77,1,2.95,1.7,3.6.27a2.46,2.46,0,0,0-.06-1.75,1.38,1.38,0,0,0-1.1-.8,3.15,3.15,0,0,0,1-1.15,1.76,1.76,0,0,0-.26-1.86c-.78-1-2.4-.37-3.11.38a3.4,3.4,0,0,1-1.17.59,5.31,5.31,0,0,1-1.64.14c-1,0-1.92.09-2.89.08H22a5.18,5.18,0,0,1-2.23-.4c-1-.73-2.45-1.53-3.62-.88a1.19,1.19,0,0,0-.47,1.35,2.21,2.21,0,0,0,.54.75,5.57,5.57,0,0,0,.57.37C17.11,24.65,17.29,24.71,16.82,24.93Zm-.49-1.29a.91.91,0,0,1,.48-1.58,2.66,2.66,0,0,1,1.51.26,4.87,4.87,0,0,1,.71.3.16.16,0,0,0,0,.18,5.65,5.65,0,0,0,3.78.83c1.7,0,3.41,0,5.11-.08a6.37,6.37,0,0,0,1.94-.23,6,6,0,0,0,1.41-.81c.86-.57,2-.88,2.51.31s-.71,1.61-1.23,2.25a.18.18,0,0,0,.12.3c.89,0,1.26.5,1.28,1.39A1.14,1.14,0,0,1,33.33,28a2.49,2.49,0,0,1-1.71-.37c-1-.53-1.11-1.9-2.44-1.9s-2.61.05-3.91.08-2.84,0-4.26,0a2.8,2.8,0,0,0-1.29.32c-.58.29-.94,1-1.49,1.35S16.31,28,16,27.11A1.49,1.49,0,0,1,16.16,26c.24-.49.62-.56,1-.84C18.17,24.43,16.83,24.14,16.33,23.64Z" transform="translate(-15.61 -21.56)"/><path d="M17.44,27.1c-.25.07-.28-.26-.28-.44a0,0,0,0,0-.09,0c0,.23.08.66.4.54C17.53,27.17,17.5,27.08,17.44,27.1Z" transform="translate(-15.61 -21.56)"/><path d="M17.37,26.4c-.08.12,0,.23.07.34l.13.19.06.07s.1,0,.12.08a.05.05,0,0,0,.09,0,.19.19,0,0,0-.07-.08.93.93,0,0,1-.15-.13c-.07-.08-.25-.26-.18-.38A0,0,0,0,0,17.37,26.4Z" transform="translate(-15.61 -21.56)"/><path d="M18,26.75c.05.05.12,0,.07-.08s-.27-.18-.28-.35a0,0,0,0,0-.09,0C17.71,26.53,17.87,26.61,18,26.75Z" transform="translate(-15.61 -21.56)"/><path d="M18.12,26.32a1,1,0,0,0,.17.18,0,0,0,1,0,.07-.07,1.21,1.21,0,0,1-.19-.2c0-.06-.05-.13-.1-.18a0,0,0,1,0-.06.06C18.06,26.17,18.07,26.25,18.12,26.32Z" transform="translate(-15.61 -21.56)"/><path d="M18.4,26a.7.7,0,0,0,.2.18s.09,0,.06-.07-.13-.12-.18-.19-.05-.17-.1-.25-.14,0-.1.06S18.34,25.9,18.4,26Z" transform="translate(-15.61 -21.56)"/><path d="M18.88,25.82a0,0,0,1,0,.06-.06,1.3,1.3,0,0,1-.14-.29s-.1,0-.07.05A.71.71,0,0,0,18.88,25.82Z" transform="translate(-15.61 -21.56)"/><path d="M19.32,25.48s.09,0,.06-.06-.06-.11-.1-.15-.09,0-.06.06S19.28,25.43,19.32,25.48Z" transform="translate(-15.61 -21.56)"/><path d="M23.82,25.47a.38.38,0,0,1-.09-.27c0-.06-.1-.06-.11,0a.58.58,0,0,0,.1.32C23.77,25.58,23.86,25.52,23.82,25.47Z" transform="translate(-15.61 -21.56)"/><path d="M24.14,25.53s.08,0,.05-.06a.49.49,0,0,1-.12-.25A.62.62,0,0,0,24,25s-.09,0-.06,0S24,25.41,24.14,25.53Z" transform="translate(-15.61 -21.56)"/><path d="M24.4,25.36a.29.29,0,0,0,.07.16s.1,0,.06-.05-.05-.25-.16-.33a0,0,0,1,0,0,0A.31.31,0,0,1,24.4,25.36Z" transform="translate(-15.61 -21.56)"/><path d="M24.9,25.46c0,.05.09,0,.08,0a.45.45,0,0,0-.11-.32s-.09,0-.05.05S24.88,25.38,24.9,25.46Z" transform="translate(-15.61 -21.56)"/><path d="M25.32,25.27a.21.21,0,0,0,0-.23,0,0,0,0,0-.08,0,.12.12,0,0,1,0,.15C25.21,25.28,25.29,25.32,25.32,25.27Z" transform="translate(-15.61 -21.56)"/><path d="M25.74,25.33s.09,0,.06-.06l-.05-.05s-.11,0-.06.06Z" transform="translate(-15.61 -21.56)"/><path d="M31.25,26.42c0-.19,0-.4.1-.56s0-.1-.08-.06a.88.88,0,0,0-.1.62S31.25,26.47,31.25,26.42Z" transform="translate(-15.61 -21.56)"/><path d="M31.37,26.67s.07,0,.07,0a1.24,1.24,0,0,1,0-.33,1.17,1.17,0,0,0,.07-.25,0,0,0,1,0-.09,0,1.08,1.08,0,0,1-.09.29A.76.76,0,0,0,31.37,26.67Z" transform="translate(-15.61 -21.56)"/><path d="M31.65,26.92a1.47,1.47,0,0,0,.09-.5c0-.06-.1-.06-.09,0a1.58,1.58,0,0,1-.1.47C31.54,27,31.64,27,31.65,26.92Z" transform="translate(-15.61 -21.56)"/><path d="M31.89,27.15a.14.14,0,0,1,0-.11c.05-.05,0-.12-.08-.08a.17.17,0,0,0-.05.2A0,0,0,0,0,31.89,27.15Z" transform="translate(-15.61 -21.56)"/></svg>