<svg id="图层_1" data-name="图层 1" xmlns="http://www.w3.org/2000/svg" xmlns:xlink="http://www.w3.org/1999/xlink" viewBox="0 0 30.32 24.67"><defs><style>.cls-1{fill:none;}.cls-2{fill:#aaa;}.cls-3{fill:#ccc;}.cls-4{fill:#bbb;}.cls-5{fill:#ffd2ff;}.cls-6{fill:#ffe;}.cls-7{fill:#322;}.cls-8{fill:#fff;}.cls-9{fill:#bd7b89;}.cls-10{opacity:0.43;}.cls-11{clip-path:url(#clip-path);}.cls-12{clip-path:url(#clip-path-2);}.cls-13{opacity:0.32;}.cls-14{clip-path:url(#clip-path-3);}.cls-15{opacity:0.24;}.cls-16{clip-path:url(#clip-path-4);}.cls-17{fill:#666;}.cls-18{opacity:0.13;}.cls-19{clip-path:url(#clip-path-5);}.cls-20{clip-path:url(#clip-path-6);}</style><clipPath id="clip-path" transform="translate(-6.46 -12.82)"><rect class="cls-1" x="23.96" y="13.95" width="1.09" height="3.18"/></clipPath><clipPath id="clip-path-2" transform="translate(-6.46 -12.82)"><rect class="cls-1" x="32.87" y="13.85" width="1.26" height="2.97"/></clipPath><clipPath id="clip-path-3" transform="translate(-6.46 -12.82)"><rect class="cls-1" x="22.86" y="22.2" width="6.74" height="2.82"/></clipPath><clipPath id="clip-path-4" transform="translate(-6.46 -12.82)"><rect class="cls-1" x="30.02" y="31.1" width="2.36" height="4.62"/></clipPath><clipPath id="clip-path-5" transform="translate(-6.46 -12.82)"><rect class="cls-1" x="28.77" y="27.63" width="4.82" height="5.9"/></clipPath><clipPath id="clip-path-6" transform="translate(-6.46 -12.82)"><rect class="cls-1" x="22.17" y="33.74" width="3.96" height="0.44"/></clipPath></defs><title>cat1</title><path class="cls-2" d="M32.29,24.79a3.87,3.87,0,0,1,1,1.33,4.57,4.57,0,0,1,0,3.32,6.4,6.4,0,0,1-3,3.59,6.18,6.18,0,0,1-1.79.58,16.4,16.4,0,0,1-7.6.11c-1.91-.45-3.29-.77-4.3-2.06a4.3,4.3,0,0,1-1-3.25c.44-2.21,3.16-3.18,4.59-3.69a11.3,11.3,0,0,1,5.38-.5c1.21.16,2.48.29,3.8.4,1,.07,2,.13,2.9.17" transform="translate(-6.46 -12.82)"/><path class="cls-3" d="M24.25,33.88a1.9,1.9,0,0,1,.47,1.29c0,.35-.17.62,0,.9a.88.88,0,0,0,.52.37A1.64,1.64,0,0,0,26.94,36a1.67,1.67,0,0,0-.42-2.3l-2.27.16" transform="translate(-6.46 -12.82)"/><path class="cls-4" d="M35.94,20.14a2.31,2.31,0,0,1-.46-.6c-.33-.6-.23-1-.53-1.65a3.27,3.27,0,0,0-.49-.74,7.1,7.1,0,0,0-2.64-2.22,6.67,6.67,0,0,0-3.31-.6,6.13,6.13,0,0,0-3.3,1.24A7.17,7.17,0,0,0,23.31,18a9.37,9.37,0,0,0-.53,1.13,2.75,2.75,0,0,1-.65.53,2.65,2.65,0,0,1-.67.26l1,.42a1.19,1.19,0,0,1-.37.14,1.53,1.53,0,0,1-.54,0l.84.28a1.72,1.72,0,0,1-.42.14l-.26,0,.65.42a5.56,5.56,0,0,0,.91,1.3,6.54,6.54,0,0,0,2.53,1.62A9.71,9.71,0,0,0,29,25a7.11,7.11,0,0,0,4.45-.71,5.45,5.45,0,0,0,1.91-2,2,2,0,0,1,1-.35h.37a1.78,1.78,0,0,1-1-.26,1.29,1.29,0,0,1-.25-.2c.19,0,.39,0,.6-.08s.47-.1.67-.16l-1-.25a2.2,2.2,0,0,1,1.11-.37Z" transform="translate(-6.46 -12.82)"/><path class="cls-4" d="M34.63,17.37c.07-1.42.15-2.49.2-3.23,0-.5.07-1-.21-1.2s-1.14.05-1.6.27a5.26,5.26,0,0,0-1.84,1.46A6.32,6.32,0,0,1,32,15a7,7,0,0,1,1.33.89,7.82,7.82,0,0,1,1.29,1.45" transform="translate(-6.46 -12.82)"/><path class="cls-5" d="M32.87,15.56a4.21,4.21,0,0,1,.78-1.28,3.89,3.89,0,0,1,1.19-.88c0,.24,0,.49,0,.74,0,1.12-.1,2.2-.2,3.23a10.43,10.43,0,0,0-.73-.85,11,11,0,0,0-1-1" transform="translate(-6.46 -12.82)"/><path class="cls-4" d="M27.63,15.11a8.34,8.34,0,0,0-1.39-1,11.16,11.16,0,0,0-2-.82l-.48-.13a4.53,4.53,0,0,0-.67-.16c-.44.1-.67,1.56-.39,2.87a5.54,5.54,0,0,0,.9,2,4.54,4.54,0,0,1,.83-1.29,5,5,0,0,1,3.23-1.49" transform="translate(-6.46 -12.82)"/><path class="cls-5" d="M25.05,16a2.06,2.06,0,0,0-.09-.84A2.91,2.91,0,0,0,24,14a8.29,8.29,0,0,0-1.07-.82,2.64,2.64,0,0,0-.24.48,2.44,2.44,0,0,0-.12.62,5.61,5.61,0,0,0,.07,1.38,5.24,5.24,0,0,0,.39,1.3,5.57,5.57,0,0,0,.56,1,4.2,4.2,0,0,1,.52-.91,4.53,4.53,0,0,1,1-1" transform="translate(-6.46 -12.82)"/><path class="cls-6" d="M35.37,22.23a1.52,1.52,0,0,1-2.11.11,6.9,6.9,0,0,1-2-3c-.32-.75-.48-1.26-1-1.44a1.15,1.15,0,0,0-.8,0c-.54.25-.57.92-.93,1.75a6.07,6.07,0,0,1-1.18,1.71c-1.27,1.28-3.84.75-4.71.54a5.44,5.44,0,0,0,.65.8,6.77,6.77,0,0,0,1,.81,8,8,0,0,0,1,.52,9.56,9.56,0,0,0,1.13.43,9.42,9.42,0,0,0,2,.39L29,25c.25,0,.59,0,1,.05h.71c.35,0,.6-.05.66-.06a5.65,5.65,0,0,0,.66-.12,4.37,4.37,0,0,0,.79-.26,4.8,4.8,0,0,0,1-.58,5.86,5.86,0,0,0,.94-.92,6.18,6.18,0,0,0,.58-.86" transform="translate(-6.46 -12.82)"/><path class="cls-7" d="M33.82,20.9a2.87,2.87,0,0,0-.57-1.15,1,1,0,0,0-.61-.33,1,1,0,0,0-.71.31,1.89,1.89,0,0,0-.6,1.42c0,.3.05.4.09.44.19.25.63.21.81.19.34,0,.3-.12.54-.12s.52.23.91.19a.44.44,0,0,0,.25-.09c.09-.1.09-.28-.11-.86" transform="translate(-6.46 -12.82)"/><path class="cls-7" d="M27.52,21.75c.33.05.43.07.54,0s.26-.45.28-.58a2,2,0,0,0-.47-1.4c-.26-.38-.42-.6-.68-.64-.47-.08-.87.44-1.09.73s-.63.81-.44,1.36a.76.76,0,0,0,.24.34c.2.14.37.05.88.08.24,0,.51.05.74.09" transform="translate(-6.46 -12.82)"/><path class="cls-8" d="M31.79,21.46c-.08-.11.13-.46.39-.51,0,0,.19,0,.26.05s0,.23,0,.25c-.13.24-.55.32-.62.21" transform="translate(-6.46 -12.82)"/><path class="cls-8" d="M33.2,20.54a.42.42,0,0,0-.34-.12.36.36,0,0,0-.31.25c0,.11.09.19.24.32s.4.35.53.28.12-.53-.12-.73" transform="translate(-6.46 -12.82)"/><path class="cls-8" d="M27.72,20.83c.12,0,.28.05.31.14s-.29.36-.32.37-.45.2-.52.11.19-.6.53-.62" transform="translate(-6.46 -12.82)"/><path class="cls-8" d="M26.63,20.55c-.13-.1-.42.09-.54.17s-.25.16-.26.27.17.32.34.35a.5.5,0,0,0,.31-.07c.25-.18.3-.61.15-.72" transform="translate(-6.46 -12.82)"/><path class="cls-9" d="M30.43,21.67c-.11-.13-.45.17-.9,0-.1,0-.16-.08-.19-.06s0,.48.35.62a.56.56,0,0,0,.44,0c.27-.13.39-.48.3-.58" transform="translate(-6.46 -12.82)"/><path class="cls-9" d="M29.91,22.26a2.24,2.24,0,0,0,.24.29c.12.12.2.19.32.2a.47.47,0,0,0,.36-.17.46.46,0,0,1-.86.05.77.77,0,0,1-.38.27.61.61,0,0,1-.54-.06.45.45,0,0,1-.13-.17.74.74,0,0,0,.54,0,.75.75,0,0,0,.45-.45" transform="translate(-6.46 -12.82)"/><path class="cls-8" d="M33.11,29.81A13.74,13.74,0,0,0,32.77,32a19.4,19.4,0,0,0-.05,2.11,3.8,3.8,0,0,1,0,.5,1.66,1.66,0,0,1-.08.53c0,.1-.15.25-1.53.55-.25.06-.41.09-.56,0a.8.8,0,0,1-.29-.6c-.11-.78-.19-1.47-.24-2l3.09-3.34" transform="translate(-6.46 -12.82)"/><path class="cls-8" d="M28.87,32.37a6.38,6.38,0,0,0-.19,1.77,3.59,3.59,0,0,0,.24,1.56,2,2,0,0,1,.24.71,1.13,1.13,0,0,1,0,.45c-.18.56-1.45.87-2.22.42a1.16,1.16,0,0,1-.42-.39,1.38,1.38,0,0,1-.16-.87A7.46,7.46,0,0,0,26,33.48l2.88-1.11" transform="translate(-6.46 -12.82)"/><path class="cls-2" d="M21.82,33.17a3.7,3.7,0,0,0-.76,1.45,2.38,2.38,0,0,0,0,1.92c.1.15.23.27.19.4s-.57.25-.87.26a2.07,2.07,0,0,1-1.61-.34,1.46,1.46,0,0,1-.37-.77c-.34-1.19-.54-2.23-.61-2.58a14.71,14.71,0,0,0-.48-1.8,5.14,5.14,0,0,0,1.3.95,5.36,5.36,0,0,0,3.19.51" transform="translate(-6.46 -12.82)"/><path class="cls-2" d="M16.78,26.49c-.64.41-1.62,1.05-2.77,1.92-1.54,1.15-1.88,1.57-2.69,1.66a4,4,0,0,1-3.11-1.44c-.73-.83-1.1-1.94-.85-2.14s1.07.57,1.43.29a.51.51,0,0,0,.1-.5c-.12-.48-.86-.58-1-.59A1.49,1.49,0,0,0,6.67,26c-.57.68.12,2.35,1,3.33a4.52,4.52,0,0,0,3.9,1.39,7.09,7.09,0,0,0,2.57-1.29,14.66,14.66,0,0,0,1.45-1.06c.39-.64.78-1.28,1.16-1.92" transform="translate(-6.46 -12.82)"/><path class="cls-8" d="M33.58,27.76a4.33,4.33,0,0,0-1.18-1.22,3.11,3.11,0,0,0-1.58-.63,3,3,0,0,0-1.6.34c-.89.44-1.12,1-1.75,1.7a7.3,7.3,0,0,1-2.88,1.66c-2.45,1-3.56.66-4.06,1.53-.25.43-.37,1.18.34,2.58a10.68,10.68,0,0,0,3.2.4,18.49,18.49,0,0,0,5.19-.7,5.3,5.3,0,0,0,1-.39,5.89,5.89,0,0,0,1.84-1.5A6.75,6.75,0,0,0,33.38,29a6.39,6.39,0,0,0,.2-1.24" transform="translate(-6.46 -12.82)"/><g class="cls-10"><g class="cls-11"><path class="cls-9" d="M25,16.09c.26-.5-.11-1.15-.2-1.33A2.33,2.33,0,0,0,24,14a4.59,4.59,0,0,1,.19,1.76c-.06.74-.3,1.36-.18,1.41s.14-.12.54-.56.38-.37.43-.47" transform="translate(-6.46 -12.82)"/></g></g><g class="cls-10"><g class="cls-12"><path class="cls-9" d="M33.65,14.28a3.86,3.86,0,0,0-.47.57,2.7,2.7,0,0,0-.31.71l1.26,1.26a4.53,4.53,0,0,1-.26-1.57,4.61,4.61,0,0,1,.24-1.4c-.12.1-.28.25-.46.43" transform="translate(-6.46 -12.82)"/></g></g><g class="cls-13"><g class="cls-14"><path class="cls-2" d="M29.6,25a13,13,0,0,1-6-2.47l-.78-.34a6.93,6.93,0,0,0,1.25,1.21A6.7,6.7,0,0,0,25,24a8.39,8.39,0,0,0,2.77.87A11.67,11.67,0,0,0,29.6,25" transform="translate(-6.46 -12.82)"/></g></g><g class="cls-15"><g class="cls-16"><path class="cls-2" d="M32.38,31.1a5.42,5.42,0,0,1-1.49,1.56,5.64,5.64,0,0,1-.87.49c.21,1.39.27,1.91.27,2.06a.69.69,0,0,0,0,.16.53.53,0,0,0,.18.3c.09.08.25.08.63-.07.56-.23.84-.34,1-.61a1.46,1.46,0,0,0,.15-1,10.64,10.64,0,0,1,.09-2.91" transform="translate(-6.46 -12.82)"/></g></g><path class="cls-17" d="M30.68,14.52a6.67,6.67,0,0,1,.77,1.08c.21.37.39.69.27.85a.37.37,0,0,1-.46,0c-.11-.09-.08-.22-.16-.46a1.9,1.9,0,0,0-.25-.5A8.27,8.27,0,0,0,30,14.38l.7.14" transform="translate(-6.46 -12.82)"/><path class="cls-17" d="M29.6,14.34q.42.66.72,1.17a2,2,0,0,1,.27.58c.05.17,0,.13.07.46,0,.1,0,.15,0,.19s-.24.09-.35,0-.09-.08-.18-.26-.13-.36-.2-.52a2.9,2.9,0,0,0-.2-.38c-.3-.49-.78-1.16-.86-1.28l.73,0" transform="translate(-6.46 -12.82)"/><path class="cls-17" d="M28.36,14.35l.72.93a1.41,1.41,0,0,1,.35.78c0,.06,0,.19-.09.24a.28.28,0,0,1-.26,0,.61.61,0,0,1-.28-.36,6.75,6.75,0,0,0-1-1.5l.6-.08" transform="translate(-6.46 -12.82)"/><path class="cls-17" d="M33.26,15.9a1.22,1.22,0,0,1-.54.7.77.77,0,0,1-.27.11c.15.15.3.3.44.46a1.28,1.28,0,0,0,.58-.36,1.53,1.53,0,0,0,.31-.46l-.52-.45" transform="translate(-6.46 -12.82)"/><path class="cls-17" d="M25.53,15.72a2.46,2.46,0,0,0,.28.44,2.59,2.59,0,0,0,.75.63l-.6.45a2.69,2.69,0,0,1-.66-.58,2.82,2.82,0,0,1-.34-.57l.57-.37" transform="translate(-6.46 -12.82)"/><path class="cls-17" d="M23.12,18.36l1-.21c.64-.13,1-.21,1.35,0,.06,0,.2.11.21.22s-.12.22-.21.27-.23,0-.47,0l-.39.06c-.37.06-.63.13-1.25.28l-.58.14c.11-.26.22-.51.34-.76" transform="translate(-6.46 -12.82)"/><path class="cls-17" d="M22.76,19.56c.47-.07.85-.14,1.11-.19A5.19,5.19,0,0,1,25,19.29a.48.48,0,0,1,.3.11.35.35,0,0,1,.11.23c0,.2-.26.32-.28.33a.79.79,0,0,1-.48,0c-.08,0-.36,0-.93.07l-1.06.12.09-.61" transform="translate(-6.46 -12.82)"/><path class="cls-17" d="M22.64,21c.47-.07.84-.14,1.1-.2a5.83,5.83,0,0,1,1.15-.07.48.48,0,0,1,.3.11.35.35,0,0,1,.1.23c0,.2-.25.32-.28.33a.76.76,0,0,1-.47,0c-.08,0-.37,0-.94.07l-1.05.12.09-.61" transform="translate(-6.46 -12.82)"/><path class="cls-17" d="M35.18,18.86a2.39,2.39,0,0,0-.78-.17c-.25,0-.61,0-.77.18a.28.28,0,0,0-.07.22.31.31,0,0,0,.18.19c.09,0,.13,0,.28,0a.66.66,0,0,1,.23,0,6.19,6.19,0,0,1,.77,0l.35,0-.19-.43" transform="translate(-6.46 -12.82)"/><path class="cls-17" d="M35.5,19.68a5,5,0,0,1-.58,0,1.57,1.57,0,0,0-.57.09.22.22,0,0,0-.12.13.6.6,0,0,0,0,.2.42.42,0,0,0,.21.23.25.25,0,0,0,.24-.05,3.08,3.08,0,0,1,.46-.07c.14,0,.32,0,.53,0l-.17-.49" transform="translate(-6.46 -12.82)"/><path class="cls-17" d="M35.5,20.67l-.4,0a.89.89,0,0,0-.38.06s-.06,0-.08.1a.3.3,0,0,0,0,.16.35.35,0,0,0,.15.2c.07,0,.11,0,.16,0a1.29,1.29,0,0,1,.32,0h.36c0-.13-.09-.27-.14-.4" transform="translate(-6.46 -12.82)"/><path class="cls-17" d="M25,24.16a2.06,2.06,0,0,0-.3.93,1.75,1.75,0,0,0,.33,1.26c.13.15.26.21.25.35s-.26.34-.44.4a1,1,0,0,1-.8-.19,1.36,1.36,0,0,1-.37-.79A2.75,2.75,0,0,1,23.61,25a2.71,2.71,0,0,1,.32-.91l1.09.06" transform="translate(-6.46 -12.82)"/><path class="cls-17" d="M23.08,24.13a2.39,2.39,0,0,0-.39,1,1.36,1.36,0,0,0,.07,1c.11.18.29.28.29.5a.46.46,0,0,1-.09.26.69.69,0,0,1-.77,0,1.08,1.08,0,0,1-.51-.66,2.51,2.51,0,0,1,.28-2Z" transform="translate(-6.46 -12.82)"/><path class="cls-17" d="M20.94,24.49a3,3,0,0,0-.19.64,1.47,1.47,0,0,0,0,.91c.11.25.29.32.26.52a.41.41,0,0,1-.18.27.89.89,0,0,1-.95-.23,1.55,1.55,0,0,1,0-1.78l1-.33" transform="translate(-6.46 -12.82)"/><path class="cls-17" d="M13.87,29.66a.69.69,0,0,1-.37-.09.73.73,0,0,1-.34-.51l-.2.15a.64.64,0,0,0,.13.33.72.72,0,0,0,.55.27l.23-.15" transform="translate(-6.46 -12.82)"/><path class="cls-17" d="M11.25,30.06a.51.51,0,0,0-.13.18.55.55,0,0,0,.2.56H11a.53.53,0,0,1-.18-.33.55.55,0,0,1,.1-.4Z" transform="translate(-6.46 -12.82)"/><path class="cls-17" d="M7.55,25.65A.44.44,0,0,1,7.7,26a.47.47,0,0,1-.1.28.49.49,0,0,0-.32-.57l.27-.07" transform="translate(-6.46 -12.82)"/><path class="cls-17" d="M7.51,27.56a.59.59,0,0,1-.43.21.68.68,0,0,1-.25-.05.72.72,0,0,0,.33.15.7.7,0,0,0,.44-.07l-.09-.24" transform="translate(-6.46 -12.82)"/><path class="cls-17" d="M17.7,33a3.74,3.74,0,0,0,.68.51,3.65,3.65,0,0,0,1.29.47,1.43,1.43,0,0,1-.78.43,1.54,1.54,0,0,1-.93-.15c-.09-.42-.17-.84-.26-1.26" transform="translate(-6.46 -12.82)"/><path class="cls-17" d="M21.18,34.23a2.29,2.29,0,0,1-.68.47,4.06,4.06,0,0,1-1.33.18,1.92,1.92,0,0,0,1.28.2,2.39,2.39,0,0,0,.52-.14l.21-.71" transform="translate(-6.46 -12.82)"/><path class="cls-17" d="M18.23,35.38a6,6,0,0,0,.66.23,3.06,3.06,0,0,0,1.18.11,1.55,1.55,0,0,0,.29,0,2,2,0,0,1-1.05.41,1.9,1.9,0,0,1-.95-.18c0-.17-.09-.34-.13-.52" transform="translate(-6.46 -12.82)"/><path class="cls-17" d="M21,36.36a3,3,0,0,1-1.45.1,2.19,2.19,0,0,0,1,.25,1.8,1.8,0,0,0,.61-.08L21,36.36" transform="translate(-6.46 -12.82)"/><path class="cls-17" d="M32.77,32a3.91,3.91,0,0,1-.75.86,4.13,4.13,0,0,1-1.4.78,2.32,2.32,0,0,0,1.44,0,2.14,2.14,0,0,0,.65-.37L32.77,32" transform="translate(-6.46 -12.82)"/><path class="cls-17" d="M28.92,35.7a2.84,2.84,0,0,1-1.11.46,2.79,2.79,0,0,1-.55,0,1.64,1.64,0,0,0,1,.29,1.59,1.59,0,0,0,.82-.3l-.19-.49" transform="translate(-6.46 -12.82)"/><path class="cls-17" d="M26.17,34.21a4,4,0,0,0,1.36.09,4.66,4.66,0,0,0,.65-.13,2.59,2.59,0,0,1-.69.42,2.44,2.44,0,0,1-1.21.17c0-.18-.07-.36-.11-.55" transform="translate(-6.46 -12.82)"/><g class="cls-18"><g class="cls-19"><path class="cls-17" d="M33.58,27.63a9.1,9.1,0,0,1-4.76,5.48l-.05.42a5.38,5.38,0,0,0,1.49-.5,5.8,5.8,0,0,0,2.32-2.3,6.71,6.71,0,0,0,.92-2.26,4.94,4.94,0,0,0,.08-.84" transform="translate(-6.46 -12.82)"/></g></g><g class="cls-18"><g class="cls-20"><path class="cls-17" d="M25.92,33.74a12.15,12.15,0,0,1-1.67.14c-1.31,0-2.08-.17-2.08-.12a9.72,9.72,0,0,0,2.83.42c.74,0,1.09,0,1.13-.16s-.1-.2-.21-.28" transform="translate(-6.46 -12.82)"/></g></g><path class="cls-17" d="M15.56,29.13a4.47,4.47,0,0,0,1.78,1.14,4.33,4.33,0,0,0,1.61.21,3.26,3.26,0,0,1-3.09,0l-.3-1.31" transform="translate(-6.46 -12.82)"/><path class="cls-17" d="M17,26.33a2.85,2.85,0,0,0,.58,1,2.64,2.64,0,0,0,.83.61A2,2,0,0,1,17,28a1.94,1.94,0,0,1-.92-.7l.91-.92" transform="translate(-6.46 -12.82)"/><path class="cls-17" d="M15.62,28.41a5.15,5.15,0,0,0,.93.41,4.88,4.88,0,0,0,1.84.22,2.51,2.51,0,0,1-1.49.48,2.59,2.59,0,0,1-1.34-.39l.06-.72" transform="translate(-6.46 -12.82)"/></svg>