<svg id="图层_1" data-name="图层 1" xmlns="http://www.w3.org/2000/svg" viewBox="0 0 17.94 28.16"><defs><style>.cls-1{opacity:0.71;}.cls-2{fill:#ddceb3;}.cls-3{fill:#fcfbfa;}.cls-4{opacity:0.49;}.cls-5{fill:#9b8f89;}.cls-6{opacity:0.51;}.cls-7{opacity:0.54;}.cls-8{fill:#e0605c;}.cls-9{fill:#393c3d;}</style></defs><title>dog3</title><g class="cls-1"><ellipse class="cls-2" cx="8.97" cy="27.03" rx="8.97" ry="1.14"/></g><path class="cls-3" d="M19.94,32.55a3.8,3.8,0,0,1-2.19-.63,3.61,3.61,0,0,0,2.48,1.83Z" transform="translate(-15.31 -8.98)"/><path class="cls-3" d="M28.58,34.92s2.85-9-1.14-6.48H21.13C17.14,26,20,34.92,20,34.92c-.26-.15-1.28-.41-1.25.24s1.12.66,1.12.66h8.85s1.09,0,1.12-.66S28.84,34.77,28.58,34.92Z" transform="translate(-15.31 -8.98)"/><g class="cls-4"><path class="cls-5" d="M22.83,30.55V28.44h-1.7a2.8,2.8,0,0,0-.9-.4c.12,1.23.28,2.84.38,3.76a25.05,25.05,0,0,0,.48,3.07,6.56,6.56,0,0,0,.27,1h1.58A16.27,16.27,0,0,0,23.07,34c0-.16,0-.33,0-.48.06-1.08,0-2.4,0-2.93Z" transform="translate(-15.31 -8.98)"/><path class="cls-5" d="M27.44,28.44h-1.7v2.11h-.27c0,.53,0,1.85,0,2.93,0,.15,0,.32,0,.48a16.27,16.27,0,0,0,.13,1.86h1.58a6.56,6.56,0,0,0,.27-1A25.05,25.05,0,0,0,28,31.8c.1-.92.26-2.53.38-3.76A2.8,2.8,0,0,0,27.44,28.44Z" transform="translate(-15.31 -8.98)"/></g><path class="cls-3" d="M28.87,25.41s-.09-3.25-.93-4.3a1.12,1.12,0,0,1,.27.15,7.88,7.88,0,0,0-.6-2H21a7.88,7.88,0,0,0-.6,2,1.12,1.12,0,0,1,.27-.15c-.84,1.05-.93,4.3-.93,4.3a.86.86,0,0,1,.24-.26A4.92,4.92,0,0,0,20,26.54a.45.45,0,0,1,.2-.2s.38,3.81.55,5.44.61,4.87,1.46,4.95c.61.05.61-1.87.68-3.26s0-3.14,0-3.14l1.37,0,1.36,0s-.06,1.75,0,3.14.07,3.31.68,3.26c.85-.08,1.28-3.33,1.46-4.95s.55-5.44.55-5.44a.45.45,0,0,1,.2.2,4.92,4.92,0,0,0,.09-1.39A.86.86,0,0,1,28.87,25.41Z" transform="translate(-15.31 -8.98)"/><g class="cls-6"><path class="cls-5" d="M27.86,19.83a6.14,6.14,0,0,0-.25-.59H21a6.14,6.14,0,0,0-.25.59.87.87,0,0,0,.17.16l.12.09.11-.12a2.05,2.05,0,0,0,.69.78l.13,0,.07-.11a1,1,0,0,0,.11-.18,7,7,0,0,0,2.18.26,6.94,6.94,0,0,0,2.17-.26,1,1,0,0,0,.11.18l.07.11.13,0a2.05,2.05,0,0,0,.69-.78l.11.12L27.7,20A1.21,1.21,0,0,0,27.86,19.83Z" transform="translate(-15.31 -8.98)"/></g><path class="cls-3" d="M30.76,14.62A7.66,7.66,0,0,0,30,12.78s.32,0,.37-.18a.86.86,0,0,1-.66-.18,7.74,7.74,0,0,0-2.44-2.14s.59-.49-.56-.21c0,0,.63-.77-.83-.26a1,1,0,0,0,.24-.27c.16-.29,0-.79-1.25.21,0,0,.07-.77-.56-.77s-.57.77-.57.77c-1.29-1-1.41-.5-1.25-.21a1.17,1.17,0,0,0,.24.27c-1.46-.51-.83.26-.83.26-1.15-.28-.56.21-.56.21a7.74,7.74,0,0,0-2.44,2.14.86.86,0,0,1-.66.18c.05.13.37.18.37.18a7.66,7.66,0,0,0-.78,1.84A7.88,7.88,0,0,0,19.31,18c.41.2.79-.38.79-.38s-.1,1.26.17,1.6a1.08,1.08,0,0,1,.24-.28,1.6,1.6,0,0,0,.47.95l.16-.18s.44.81.72.91a.65.65,0,0,0,.13-.32,5.15,5.15,0,0,0,2.3.32h0a5.12,5.12,0,0,0,2.29-.32.65.65,0,0,0,.13.32c.28-.1.72-.91.72-.91l.16.18a1.6,1.6,0,0,0,.47-.95,1.08,1.08,0,0,1,.24.28c.27-.34.17-1.6.17-1.6s.38.58.79.38A7.88,7.88,0,0,0,30.76,14.62Z" transform="translate(-15.31 -8.98)"/><g class="cls-7"><path class="cls-5" d="M26.7,25.52a.3.3,0,0,1,0,.08.2.2,0,0,1,0,.08l.15.31,0-.34v-.24l0-.11,0-.12a.49.49,0,0,0,0-.11s0-.07,0-.11l-.06-.11a.47.47,0,0,0,0-.1l-.06-.1-.07-.1-.07-.09a.86.86,0,0,0-.07-.1A3.85,3.85,0,0,0,26,24a3.27,3.27,0,0,1,.3.35.36.36,0,0,0,.07.1l.06.1.06.1.05.1a.93.93,0,0,0,.05.1l0,.11a.49.49,0,0,1,0,.11s0,.07,0,.11l0,.11v0l0-.05a.58.58,0,0,0-.11-.15l0,0,0,0,0,0,0,0-.17-.13.06.21.06.2c0,.07,0,.14.05.21s0,.14,0,.21l0,.11s0,.07,0,.1,0,.07,0,.11v.21a.34.34,0,0,1,0,.1v.11a.34.34,0,0,1,0,.1v0l-.11-.12-.13-.11-.08-.06,0,0-.05,0L26,26.17l.08.2,0,.07s0,0,0,.08a.94.94,0,0,1,0,.16.94.94,0,0,1,0,.16.19.19,0,0,0,0,.08.28.28,0,0,0,0,.09v.24a.25.25,0,0,0,0,.08v.15a.46.46,0,0,1-.07-.07l-.06-.05-.06,0,0,0h0l0,0,0,0-.11,0v.58c0,.15,0,.3,0,.45a2.16,2.16,0,0,1-.1.44.3.3,0,0,1,0,.1,1,1,0,0,1,0,.1l0,.05,0,0,0,0,0,0-.05.06.06,0h.3v.09c0,.06,0,.11,0,.17l-.06.31a1.34,1.34,0,0,1-.12.3.25.25,0,0,0,0,.07l-.05.06-.06.06-.06.05.06,0,.07-.06.05-.06a.18.18,0,0,0,.05-.07,1.11,1.11,0,0,0,.14-.29,2,2,0,0,0,.08-.33l0-.16s0-.11,0-.17V29l-.07,0h-.2l0,0,0-.05,0-.05.06-.11a1.17,1.17,0,0,0,.05-.11,2.37,2.37,0,0,0,.11-.46,3.73,3.73,0,0,0,0-.47v-.32l0,0,0,0,.09.09a.1.1,0,0,0,0,.05v0l0,0,.11.16,0-.18,0-.09v-.26a.28.28,0,0,0,0-.09V27s0-.06,0-.09,0-.06,0-.09a1.36,1.36,0,0,0,0-.17.24.24,0,0,0,0-.08l.05,0,.11.12.12.12.11.13,0-.17,0-.11a.49.49,0,0,0,0-.12.41.41,0,0,0,0-.11v-.22l0-.11V26a.36.36,0,0,0,0-.11.43.43,0,0,0,0-.11l0-.11a1.6,1.6,0,0,0,0-.21c0-.06,0-.11,0-.17l.05.07Z" transform="translate(-15.31 -8.98)"/></g><g class="cls-7"><path class="cls-5" d="M23.17,30.2l-.06-.06,0-.06L23,30a1.34,1.34,0,0,1-.12-.3l-.06-.31c0-.06,0-.11,0-.17v-.09h.3l.06,0L23.14,29l0,0,0,0,0,0,0-.05a1,1,0,0,1,0-.1.3.3,0,0,1,0-.1,1.64,1.64,0,0,1-.09-.44,3.4,3.4,0,0,1,0-.45V27.2l-.11,0,0,0,0,0h0l0,0-.06,0-.06.05a.46.46,0,0,1-.07.07v-.23s0-.05,0-.08V27a.28.28,0,0,0,0-.09s0-.05,0-.08a.9.9,0,0,1,0-.16.94.94,0,0,1,0-.16.24.24,0,0,0,0-.08l0-.07.08-.2-.19.08-.05,0,0,0-.08.06-.13.11-.11.12v0a.34.34,0,0,1,0-.1v-.11a.34.34,0,0,1,0-.1V26s0-.07,0-.11,0-.07,0-.1l0-.11c0-.07,0-.14,0-.21s0-.14.05-.21l.06-.2.06-.21-.17.13,0,0,0,0,0,0,0,0a.58.58,0,0,0-.11.15l0,.05v0l0-.11s0-.07,0-.11a.49.49,0,0,1,0-.11l0-.11a.93.93,0,0,0,.05-.1l.06-.1.05-.1.06-.1a.36.36,0,0,0,.07-.1,3.27,3.27,0,0,1,.3-.35,3.85,3.85,0,0,0-.33.33.86.86,0,0,0-.07.1l-.07.09a.61.61,0,0,1-.07.1l-.06.1a.47.47,0,0,0,0,.1l-.06.11s0,.07,0,.11a.49.49,0,0,0,0,.11l0,.12a.36.36,0,0,0,0,.11l0,.06v.18l0,.34.15-.31a.2.2,0,0,1,0-.08l0-.08.09-.14.05-.07c0,.06,0,.11,0,.17a1.6,1.6,0,0,0,0,.21l0,.11a.43.43,0,0,0,0,.11s0,.07,0,.11v.11l0,.11v.22s0,.07,0,.11a.49.49,0,0,0,0,.12l0,.11,0,.17.11-.13.12-.12.11-.12.05,0a.24.24,0,0,0,0,.08,1.36,1.36,0,0,0,0,.17.28.28,0,0,1,0,.09s0,.06,0,.09v.27a.28.28,0,0,0,0,.09v.26l0,.09,0,.18.11-.16,0,0v0a.1.1,0,0,0,0-.05l.09-.09s0,0,0,0l0,0v.32a3.73,3.73,0,0,0,0,.47,2.37,2.37,0,0,0,.11.46,1.17,1.17,0,0,0,.05.11l.06.11,0,.05L23,29l0,0h-.2l-.07,0v.06c0,.06,0,.12,0,.17l0,.16a2,2,0,0,0,.08.33A1.11,1.11,0,0,0,23,30a.18.18,0,0,0,.05.07l.05.06.07.06.06,0Z" transform="translate(-15.31 -8.98)"/></g><path class="cls-8" d="M24.29,21.88c-1.17,0-1-1.58-1-2.69a1.17,1.17,0,0,0,1-1.06,1.22,1.22,0,0,0,1,1C25.28,20.25,25.45,21.88,24.29,21.88Z" transform="translate(-15.31 -8.98)"/><path class="cls-9" d="M25.34,19.3H25.2c-1-.08-1-1.74-1-1.81a.1.1,0,0,1,.1-.11h0a.12.12,0,0,1,.11.11s0,1.53.81,1.59a1.2,1.2,0,0,0,.94-.27.11.11,0,0,1,.15,0,.11.11,0,0,1,0,.16A1.45,1.45,0,0,1,25.34,19.3Z" transform="translate(-15.31 -8.98)"/><path class="cls-9" d="M23.23,19.3a1.45,1.45,0,0,1-1-.33.11.11,0,0,1,0-.16.11.11,0,0,1,.15,0,1.25,1.25,0,0,0,.94.27c.8-.06.82-1.58.82-1.59a.1.1,0,0,1,.11-.11h0a.11.11,0,0,1,.11.11c0,.07,0,1.73-1,1.81Z" transform="translate(-15.31 -8.98)"/><g class="cls-7"><path class="cls-5" d="M22.1,19.14q.21,0,.54-.81a.09.09,0,0,0,0-.11.08.08,0,0,0-.12,0,3,3,0,0,1-.37.7.84.84,0,0,1-.08-.39h0a.09.09,0,0,0-.17,0h0c-.05.16-.16.34-.22.35h0s-.06-.14-.07-.21h0a.09.09,0,0,0-.17,0h0c0,.1-.13.21-.18.21a.1.1,0,0,0-.1.09.1.1,0,0,0,.09.09.29.29,0,0,0,.23-.13.27.27,0,0,0,.09.12.16.16,0,0,0,.15,0,.36.36,0,0,0,.22-.17c0,.13.1.25.21.25Z" transform="translate(-15.31 -8.98)"/></g><g class="cls-7"><path class="cls-5" d="M26.47,19.14q-.21,0-.54-.81a.09.09,0,0,1,0-.11.08.08,0,0,1,.12,0,3,3,0,0,0,.37.7.84.84,0,0,0,.08-.39h0a.09.09,0,0,1,.17,0h0c.05.16.16.34.22.35a0,0,0,0,0,0,0,.33.33,0,0,0,.07-.21h0a.09.09,0,0,1,.17,0h0c0,.1.13.21.18.21a.1.1,0,0,1,.1.09.1.1,0,0,1-.09.09.29.29,0,0,1-.23-.13.27.27,0,0,1-.09.12.16.16,0,0,1-.15,0,.36.36,0,0,1-.22-.17c0,.13-.1.25-.21.25Z" transform="translate(-15.31 -8.98)"/></g><g class="cls-7"><path class="cls-5" d="M21.18,15.34l.31.06.22.07.09,0,0-.06a.36.36,0,0,0,0-.09l0,0,0,0-.06-.12h.25l.11.05a.75.75,0,0,1,.18.13l.06.07v0c0-.05,0-.11,0-.16l0-.08,0-.08L22,14.82l.2.16a1.26,1.26,0,0,1,.2.2,1.58,1.58,0,0,1,.15.24,2.6,2.6,0,0,1,.1.25,1.25,1.25,0,0,1,.07.26.61.61,0,0,0-.05-.12l-.06-.12a1.64,1.64,0,0,0-.14-.22l-.13-.17v0a1.16,1.16,0,0,1,0,.18.64.64,0,0,1,0,.2l0,.24-.12-.21,0,0,0,0-.06-.08-.12-.14-.14-.11h0l0,.05,0,.11a.13.13,0,0,0,0,.06v.18l-.09-.07h0l0,0,0,0-.1,0-.2-.07-.3-.06A.52.52,0,0,0,21.18,15.34Z" transform="translate(-15.31 -8.98)"/></g><g class="cls-7"><path class="cls-5" d="M27.4,15.34l-.32.06-.22.07-.09,0,0-.06a.36.36,0,0,1,0-.09l0,0,0,0,.06-.12h-.25l-.11.05a.75.75,0,0,0-.18.13l-.06.07v0c0-.05,0-.11,0-.16l0-.08,0-.08.09-.25-.2.16a1.26,1.26,0,0,0-.2.2,1.58,1.58,0,0,0-.15.24,2.6,2.6,0,0,0-.1.25,1.25,1.25,0,0,0-.07.26.61.61,0,0,1,.05-.12l.06-.12.14-.22.13-.17v0a1.16,1.16,0,0,0,0,.18.64.64,0,0,0,0,.2l0,.24.12-.21,0,0,0,0a.35.35,0,0,1,0-.08l.12-.14.14-.11h0l0,.05,0,.11v.24l.09-.07h0l0,0,0,0,.1,0,.2-.07.3-.06A.22.22,0,0,1,27.4,15.34Z" transform="translate(-15.31 -8.98)"/></g><g class="cls-7"><path class="cls-5" d="M20.1,17.57a4.45,4.45,0,0,0,.95-2.5c.05-1.45-.23-2.09.23-3a8.3,8.3,0,0,0-.11.9c0,.58.11,1.75.08,2.16A4.28,4.28,0,0,1,20.09,18C20.09,17.73,20.1,17.57,20.1,17.57Z" transform="translate(-15.31 -8.98)"/></g><g class="cls-7"><path class="cls-5" d="M28.47,17.57a4.45,4.45,0,0,1-.95-2.5c-.05-1.45.23-2.09-.23-3a8.3,8.3,0,0,1,.11.9c0,.58-.11,1.75-.08,2.16A4.25,4.25,0,0,0,28.49,18C28.48,17.73,28.47,17.57,28.47,17.57Z" transform="translate(-15.31 -8.98)"/></g><ellipse class="cls-9" cx="10.91" cy="4.22" rx="0.36" ry="0.51"/><ellipse class="cls-9" cx="7.04" cy="4.22" rx="0.36" ry="0.51"/><path class="cls-9" d="M23.22,16.56a1.48,1.48,0,0,0,1.07,1.05,1.48,1.48,0,0,0,1.06-1.05c0-.42-.46-.57-1.06-.57S23.22,16.14,23.22,16.56Z" transform="translate(-15.31 -8.98)"/></svg>