<svg id="图层_1" data-name="图层 1" xmlns="http://www.w3.org/2000/svg" viewBox="0 0 63.79 76.11"><defs><style>.cls-1{fill:#f4c3ca;}.cls-2{fill:#ef95a6;}.cls-3{fill:#050505;opacity:0.02;}.cls-4{fill:#efabb8;}.cls-5{fill:#e87490;}.cls-6{fill:#e2547d;}.cls-7{fill:#e0638d;}.cls-8{fill:#e87792;}.cls-9{fill:#db1964;}.cls-10{fill:#990d46;}.cls-11{fill:#e22765;}.cls-12{fill:#c41055;}.cls-13{fill:#c90a54;}.cls-14{fill:#d10f59;}</style></defs><title>egg1</title><polygon class="cls-1" points="1.93 28.14 1.93 65.22 33.81 76.11 33.81 36.66 1.93 28.14"/><path class="cls-2" d="M43.13,58.28c-.1-3.2-1.33-6.39-3.36-7.28a3.78,3.78,0,0,0-1.3-.33c-1.19-.06-2.29.54-3.46,1.9a7.08,7.08,0,0,0-1.16,1.93h0a16.5,16.5,0,0,0-1-3.31c-1-1.47-2.05-2.19-3.24-2.25a3.94,3.94,0,0,0-1.33.18c-2.12.68-3.48,3.73-3.92,6.9a15.45,15.45,0,0,0,2,9.21c1.73,3.24,4.73,9.18,6.08,11l.42.59.25-.22a89.84,89.84,0,0,0,7-8.69A17.35,17.35,0,0,0,43.13,58.28Z" transform="translate(-17.11 -10.8)"/><path class="cls-3" d="M19,62.93s10.88,18.31,32,8.31V86.91L19,76Z" transform="translate(-17.11 -10.8)"/><polygon class="cls-4" points="62.37 27.82 62.37 65.22 33.81 76.11 33.81 36.66 62.37 27.82"/><path class="cls-2" d="M56.47,58.28c.1-3.2,1.33-6.39,3.37-7.28a3.78,3.78,0,0,1,1.29-.33c1.19-.06,2.29.54,3.46,1.9a6.84,6.84,0,0,1,1.16,1.93h0a15.87,15.87,0,0,1,1-3.31c1-1.47,2-2.19,3.24-2.25a3.92,3.92,0,0,1,1.32.18c2.12.68,3.49,3.73,3.92,6.9a15.43,15.43,0,0,1-2,9.21c-1.74,3.24-4.74,9.18-6.09,11l-.41.59-.26-.22a89.84,89.84,0,0,1-7-8.69A17.43,17.43,0,0,1,56.47,58.28Z" transform="translate(-17.11 -10.8)"/><path class="cls-3" d="M79.47,62.93s-9.7,18.31-28.56,8.31V86.91L79.47,76Z" transform="translate(-17.11 -10.8)"/><polygon class="cls-5" points="0 18.99 31.99 10.94 63.79 18.99 33.81 27.82 0 18.99"/><polygon class="cls-6" points="10.89 30.46 10.89 21.83 25.09 18.04 33.2 20.17 19.17 24.04 19.17 32.74 10.89 30.46"/><polygon class="cls-6" points="54.85 30.46 54.85 21.83 40.65 18.04 32.55 20.17 46.57 24.04 46.57 32.74 54.85 30.46"/><polygon class="cls-2" points="0 18.99 0 27.63 33.81 36.66 33.81 27.82 0 18.99"/><polygon class="cls-7" points="10.89 21.83 19.17 24.04 19.17 32.74 10.89 30.46 10.89 21.83"/><polygon class="cls-8" points="63.79 18.99 63.79 27.63 33.81 36.66 33.81 27.82 63.79 18.99"/><polygon class="cls-7" points="54.85 21.83 46.57 24.04 46.57 32.74 54.85 30.32 54.85 21.83"/><path class="cls-9" d="M61.08,28.37s5.93,1.15,5.8,9a9.89,9.89,0,0,0,6.88,9.83s-4.93.74-6.24,0c0,0,.68,4.95,3.76,5.53,0,0-6.5.53-10.2-7.12S59,33,56.63,30.07l.72-.84Z" transform="translate(-17.11 -10.8)"/><path class="cls-10" d="M66.88,37.4c.13-7.88-5.8-9-5.8-9l-3.73.86s5.7-.1,6.95,5.53S67.08,46,73.76,47.23A9.89,9.89,0,0,1,66.88,37.4Z" transform="translate(-17.11 -10.8)"/><path class="cls-9" d="M40.21,27.62s-6,.22-7.14,8a9.88,9.88,0,0,1-8.32,8.65s4.76,1.49,6.17,1c0,0-1.44,4.77-4.57,4.88,0,0,6.33,1.52,11.18-5.46s4-12.13,6.81-14.67l-.59-.94Z" transform="translate(-17.11 -10.8)"/><path class="cls-10" d="M33.07,35.64c1.1-7.8,7.14-8,7.14-8l3.54,1.43s-5.61-1-7.72,4.38S31.54,44.12,24.75,44.29A9.88,9.88,0,0,0,33.07,35.64Z" transform="translate(-17.11 -10.8)"/><path class="cls-11" d="M49.15,30.62s-4.27-7.93-8.64-10.42-10.66-1.89-9.24,5.21a6,6,0,0,1-3.39-7.57,9.28,9.28,0,0,1,11.8-6.63c3.3,1,10.41,6.27,10.65,16.8Z" transform="translate(-17.11 -10.8)"/><path class="cls-12" d="M35.76,18.87s-1.07,7.9,11.42,8.52l2,3.23s-12.08.23-17.88-5.21C31.27,25.41,29.13,19.08,35.76,18.87Z" transform="translate(-17.11 -10.8)"/><path class="cls-13" d="M33.9,11.28h0c10.11.67,15.25,14,15.25,14l1.14,1.83c-.61-9.93-7.41-14.92-10.61-15.9A9.75,9.75,0,0,0,33.9,11.28Z" transform="translate(-17.11 -10.8)"/><path class="cls-10" d="M47.18,27.39c-12.49-.62-11.42-8.52-11.42-8.52a6.25,6.25,0,0,0-2.88.69s1,8.05,13.58,8.81h1.32Z" transform="translate(-17.11 -10.8)"/><path class="cls-11" d="M53.46,30.62s4.26-7.93,8.64-10.42,10.66-1.89,9.23,5.21a6,6,0,0,0,3.4-7.57c-2-6.63-7.94-7.81-11.8-6.63-3.3,1-10.41,6.27-10.65,16.8Z" transform="translate(-17.11 -10.8)"/><path class="cls-12" d="M66.84,18.87s1.08,7.9-11.41,8.52l-2,3.23s12.08.23,17.87-5.21C71.33,25.41,73.48,19.08,66.84,18.87Z" transform="translate(-17.11 -10.8)"/><path class="cls-13" d="M68.71,11.28h0c-10.11.67-15.25,14-15.25,14l-1.14,1.83c.61-9.93,7.41-14.92,10.61-15.9A9.75,9.75,0,0,1,68.71,11.28Z" transform="translate(-17.11 -10.8)"/><path class="cls-10" d="M55.43,27.39c12.49-.62,11.41-8.52,11.41-8.52a6.29,6.29,0,0,1,2.89.69s-1,8.05-13.58,8.81H54.83Z" transform="translate(-17.11 -10.8)"/><path class="cls-14" d="M47.4,25.92a6.87,6.87,0,0,1,6.23-.14,2.79,2.79,0,0,1,0,5.06c-1.84.82-4.35,1.35-6.23-.07A3,3,0,0,1,47.4,25.92Z" transform="translate(-17.11 -10.8)"/><path class="cls-10" d="M53.63,25.78a5.69,5.69,0,0,0-2.5-.68h0c3.44,1.36,2.25,4.2-.44,4.95a6.82,6.82,0,0,1-4.23-.39h0a3.14,3.14,0,0,0,.94,1.11c1.88,1.42,4.39.89,6.23.07A2.79,2.79,0,0,0,53.63,25.78Z" transform="translate(-17.11 -10.8)"/></svg>