<svg id="图层_1" data-name="图层 1" xmlns="http://www.w3.org/2000/svg" xmlns:xlink="http://www.w3.org/1999/xlink" viewBox="0 0 58.5 64.5"><defs><style>.cls-1{fill:#9ed0c7;}.cls-2{fill:#f75252;}.cls-3{fill:#050505;opacity:0.1;}.cls-4{clip-path:url(#clip-path);}.cls-5{fill:#e53953;}.cls-6{fill:none;stroke:#e0cacf;stroke-miterlimit:10;}.cls-7{fill:#63a598;}.cls-8{fill:#d32032;}.cls-9{fill:#aa222a;}.cls-10{fill:#5e0d15;}.cls-11{fill:#8c1521;}.cls-12{fill:#b70d25;}</style><clipPath id="clip-path" transform="translate(-22.98 -18.83)"><path id="SVGID" class="cls-1" d="M81.48,29.56C81.38,26,78.83,20,68.68,19a32.46,32.46,0,0,0-17.07,2.9,32.25,32.25,0,0,0-17.27-.83c-9.93,2.19-11.69,8.46-11.31,12S30,46.29,53.62,52.85c0,0,.05,0,.07,0l0,0C76.33,43.5,81.58,33.15,81.48,29.56Z"/></clipPath></defs><title>egg3</title><path class="cls-1" d="M80.49,44.89C80.49,45,24,46.25,24,46.14v18s.6,13,29.72,19.14c0,0,21.88-5.28,26.79-19.94Z" transform="translate(-22.98 -18.83)"/><polygon class="cls-2" points="1.01 22.65 1.01 22.65 1.01 22.65 1.01 22.65"/><path class="cls-3" d="M53.7,83.33s21.88-5.28,26.79-19.94V45.12h0C74.68,70.56,53,73.85,53,73.85c-15.55.35-29-11.14-29-11.14l0,0v1.52S24.58,77.2,53.7,83.33Z" transform="translate(-22.98 -18.83)"/><path id="SVGID-2" data-name="SVGID" class="cls-1" d="M81.48,29.56C81.38,26,78.83,20,68.68,19a32.46,32.46,0,0,0-17.07,2.9,32.25,32.25,0,0,0-17.27-.83c-9.93,2.19-11.69,8.46-11.31,12S30,46.29,53.62,52.85c0,0,.05,0,.07,0l0,0C76.33,43.5,81.58,33.15,81.48,29.56Z" transform="translate(-22.98 -18.83)"/><g class="cls-4"><polygon class="cls-5" points="24.42 42.1 25.65 32.51 25.04 2.08 28.7 2.4 32.7 1.43 34.73 32.29 36.54 42.1 30.69 43.91 24.42 42.1"/></g><polygon class="cls-6" points="0.02 12.77 0.02 12.77 0.02 12.77 0.02 12.77"/><path class="cls-7" d="M81.48,29.56c.1,3.59-5.15,13.94-27.76,23.29l0,0s-.07,0-.07,0C30,46.29,23.4,36.66,23,33.09l0-.33,0,10.82s1.18,11.8,30.77,19.13c0,0,22.65-5.27,27.73-19.94V29.56Z" transform="translate(-22.98 -18.83)"/><path class="cls-8" d="M48.63,51.34s-1.36,9.56-1.22,9.6c3.59,1.11,6.34,1.77,6.34,1.77a36.62,36.62,0,0,0,6.06-1.89l-2.1-9.7-4.09,1.73Z" transform="translate(-22.98 -18.83)"/><path class="cls-9" d="M48.23,30.25A7.57,7.57,0,0,1,56,29.88a18.76,18.76,0,0,0,.09,3.55,6.89,6.89,0,0,1-6.53.39Z" transform="translate(-22.98 -18.83)"/><path class="cls-10" d="M56.06,33.43a12.26,12.26,0,0,1-.13-1.91.1.1,0,0,0,0,0c-1.88,1.75-6.8.87-6.8.87v.12l.46,1.27A6.89,6.89,0,0,0,56.06,33.43Z" transform="translate(-22.98 -18.83)"/><path class="cls-8" d="M32.86,28.32s-1.16-.14-3.19-.45c0,0,.31-4.74,4.09-5.86a17.54,17.54,0,0,1,14.47,8.24S39.73,27.07,32.86,28.32Z" transform="translate(-22.98 -18.83)"/><path class="cls-8" d="M36.43,35.25s-3.51-.1-3.78,2.66a14.12,14.12,0,0,0,9.66,4.87s6-3.9,7.22-9l-.45-1.39S47.23,34.79,36.43,35.25Z" transform="translate(-22.98 -18.83)"/><path class="cls-9" d="M48.23,30.25S31,19.67,28.69,30.05c0,0,.66,6.48,4,7.86a5.7,5.7,0,0,1,5.21-3.54c4-.14,9.29-.11,11.22-1.94Z" transform="translate(-22.98 -18.83)"/><path class="cls-10" d="M37.32,33.6c-4.79.9-4.67,4.31-4.67,4.31s11.53-1.18,16.24-5.31C46.82,34.26,41.16,32.88,37.32,33.6Z" transform="translate(-22.98 -18.83)"/><path class="cls-11" d="M48.81,31.83s-4.21,1-6.19.26,6.05-.63,6.05-.63Z" transform="translate(-22.98 -18.83)"/><path class="cls-11" d="M48.42,30.78S41.1,30,41,29.35s7.36,1.2,7.36,1.2Z" transform="translate(-22.98 -18.83)"/><path class="cls-12" d="M49.32,33.25s-1.52,4.41-3.76,4.35S49.23,33,49.23,33Z" transform="translate(-22.98 -18.83)"/><path class="cls-12" d="M48.23,30.25s-5.31-4.95-6.07-4.49S48.23,30.25,48.23,30.25Z" transform="translate(-22.98 -18.83)"/><path class="cls-8" d="M71.14,28.32s1.16-.14,3.19-.45c0,0-.32-4.74-4.1-5.86a17.55,17.55,0,0,0-14.47,8.24S64.26,27.07,71.14,28.32Z" transform="translate(-22.98 -18.83)"/><path class="cls-8" d="M67.56,35.25s3.52-.1,3.79,2.66a14.16,14.16,0,0,1-9.67,4.87s-6-3.9-7.21-9l.44-1.39S56.77,34.79,67.56,35.25Z" transform="translate(-22.98 -18.83)"/><path class="cls-9" d="M55.76,30.25S73,19.67,75.31,30.05c0,0-.66,6.48-4,7.86a5.7,5.7,0,0,0-5.21-3.54c-4-.14-9.3-.11-11.23-1.94Z" transform="translate(-22.98 -18.83)"/><path class="cls-10" d="M66.67,33.6c4.79.9,4.68,4.31,4.68,4.31S59.82,36.73,55.11,32.6C57.18,34.26,62.84,32.88,66.67,33.6Z" transform="translate(-22.98 -18.83)"/><path class="cls-11" d="M55.19,31.83s4.2,1,6.18.26-6-.63-6-.63Z" transform="translate(-22.98 -18.83)"/><path class="cls-11" d="M55.57,30.78S62.89,30,63,29.35s-7.36,1.2-7.36,1.2Z" transform="translate(-22.98 -18.83)"/><path class="cls-12" d="M54.67,33.25s1.52,4.41,3.77,4.35S54.76,33,54.76,33Z" transform="translate(-22.98 -18.83)"/><path class="cls-12" d="M55.76,30.25s5.31-4.95,6.07-4.49S55.76,30.25,55.76,30.25Z" transform="translate(-22.98 -18.83)"/></svg>