<svg id="图层_1" data-name="图层 1" xmlns="http://www.w3.org/2000/svg" xmlns:xlink="http://www.w3.org/1999/xlink" viewBox="0 0 76.35 68.4"><defs><style>.cls-1{fill:none;}.cls-2{fill:#d10b35;}.cls-3{fill:#e71b3e;}.cls-4{fill:#ad0934;}.cls-5{clip-path:url(#clip-path);}.cls-6{fill:#c10830;}.cls-7{fill:#050505;opacity:0.1;}.cls-8{fill:#f9bf64;}.cls-9{fill:#efa33f;}.cls-10{fill:#d18830;}.cls-11{fill:#e2a14b;}</style><clipPath id="clip-path" transform="translate(-12.62 -16.97)"><rect id="SVGID" class="cls-1" x="21.61" y="48.08" width="58.38" height="34.95"/></clipPath></defs><title>egg2</title><rect class="cls-2" x="7.26" y="21.37" width="61.83" height="9.73"/><rect class="cls-3" x="8.99" y="31.1" width="58.38" height="34.95"/><polygon class="cls-4" points="58.3 13.67 38.18 13.67 18.05 13.67 7.26 21.37 38.18 21.37 69.09 21.37 58.3 13.67"/><g class="cls-5"><path class="cls-6" d="M23.46,46.06a2.9,2.9,0,0,0-2.16-2.44,3.42,3.42,0,0,0-.76-.09,3.12,3.12,0,0,0-1.94.71,2.47,2.47,0,0,0-.6.69h0a2.52,2.52,0,0,0-.61-.69,3.1,3.1,0,0,0-1.93-.71,3.42,3.42,0,0,0-.76.09,2.78,2.78,0,0,0-2,2.44,3.84,3.84,0,0,0,1.44,3.14,41.6,41.6,0,0,0,3.77,3.23l.26.2.14-.08A38.92,38.92,0,0,0,22,49.42,4.22,4.22,0,0,0,23.46,46.06Z" transform="translate(-12.62 -16.97)"/><path class="cls-6" d="M38,46.06a2.9,2.9,0,0,0-2.16-2.44,3.42,3.42,0,0,0-.76-.09,3.1,3.1,0,0,0-1.93.71,2.52,2.52,0,0,0-.61.69h0a2.47,2.47,0,0,0-.6-.69A3.12,3.12,0,0,0,30,43.53a3.42,3.42,0,0,0-.76.09,2.79,2.79,0,0,0-2,2.44,3.87,3.87,0,0,0,1.44,3.14,40.26,40.26,0,0,0,3.78,3.23l.25.2.14-.08a38.91,38.91,0,0,0,3.78-3.13A4.24,4.24,0,0,0,38,46.06Z" transform="translate(-12.62 -16.97)"/><path class="cls-6" d="M52.57,46.06a2.91,2.91,0,0,0-2.17-2.44,3.33,3.33,0,0,0-.75-.09,3.12,3.12,0,0,0-1.94.71,2.7,2.7,0,0,0-.61.69h0a2.52,2.52,0,0,0-.61-.69,3.1,3.1,0,0,0-1.94-.71,3.33,3.33,0,0,0-.75.09,2.78,2.78,0,0,0-2,2.44,3.85,3.85,0,0,0,1.43,3.14A41.58,41.58,0,0,0,47,52.43l.25.2.15-.08a38.92,38.92,0,0,0,3.77-3.13A4.22,4.22,0,0,0,52.57,46.06Z" transform="translate(-12.62 -16.97)"/><path class="cls-6" d="M67.12,46.06A2.9,2.9,0,0,0,65,43.62a3.42,3.42,0,0,0-.76-.09,3.12,3.12,0,0,0-1.94.71,2.47,2.47,0,0,0-.6.69h0a2.64,2.64,0,0,0-.6-.69,3.12,3.12,0,0,0-1.94-.71,3.42,3.42,0,0,0-.76.09,2.79,2.79,0,0,0-2.05,2.44,3.84,3.84,0,0,0,1.44,3.14,41.6,41.6,0,0,0,3.77,3.23l.26.2.14-.08a38.92,38.92,0,0,0,3.77-3.13A4.22,4.22,0,0,0,67.12,46.06Z" transform="translate(-12.62 -16.97)"/><path class="cls-6" d="M81.67,46.06a2.9,2.9,0,0,0-2.16-2.44,3.35,3.35,0,0,0-.76-.09,3.1,3.1,0,0,0-1.93.71,2.52,2.52,0,0,0-.61.69h0a2.7,2.7,0,0,0-.61-.69,3.12,3.12,0,0,0-1.94-.71,3.42,3.42,0,0,0-.76.09,2.77,2.77,0,0,0-2,2.44,3.85,3.85,0,0,0,1.43,3.14,40.26,40.26,0,0,0,3.78,3.23l.25.2.14-.08a37.75,37.75,0,0,0,3.78-3.13A4.2,4.2,0,0,0,81.67,46.06Z" transform="translate(-12.62 -16.97)"/><path class="cls-6" d="M30.74,57a2.92,2.92,0,0,0-2.17-2.45,3.33,3.33,0,0,0-.75-.09,3.06,3.06,0,0,0-1.94.72,2.26,2.26,0,0,0-.61.69h0a2.26,2.26,0,0,0-.61-.69,3.06,3.06,0,0,0-1.94-.72,3.33,3.33,0,0,0-.75.09,2.78,2.78,0,0,0-2,2.45,3.85,3.85,0,0,0,1.43,3.13,41.86,41.86,0,0,0,3.78,3.24l.25.19.15-.08a37.26,37.26,0,0,0,3.77-3.12A4.26,4.26,0,0,0,30.74,57Z" transform="translate(-12.62 -16.97)"/><path class="cls-6" d="M45.29,57a2.91,2.91,0,0,0-2.16-2.45,3.42,3.42,0,0,0-.76-.09,3.08,3.08,0,0,0-1.94.72,2.22,2.22,0,0,0-.6.69h0a2.26,2.26,0,0,0-.61-.69,3.05,3.05,0,0,0-1.93-.72,3.42,3.42,0,0,0-.76.09A2.79,2.79,0,0,0,34.47,57a3.83,3.83,0,0,0,1.44,3.13,41.88,41.88,0,0,0,3.77,3.24l.26.19.14-.08a37.26,37.26,0,0,0,3.77-3.12A4.23,4.23,0,0,0,45.29,57Z" transform="translate(-12.62 -16.97)"/><path class="cls-6" d="M59.84,57a2.91,2.91,0,0,0-2.16-2.45,3.35,3.35,0,0,0-.76-.09,3.05,3.05,0,0,0-1.93.72,2.26,2.26,0,0,0-.61.69h0a2.41,2.41,0,0,0-.61-.69,3.08,3.08,0,0,0-1.94-.72,3.42,3.42,0,0,0-.76.09A2.81,2.81,0,0,0,49,57a3.86,3.86,0,0,0,1.44,3.13,40.53,40.53,0,0,0,3.78,3.24l.25.19.14-.08a36.19,36.19,0,0,0,3.78-3.12A4.25,4.25,0,0,0,59.84,57Z" transform="translate(-12.62 -16.97)"/><path class="cls-6" d="M74.4,57a2.92,2.92,0,0,0-2.16-2.45,3.42,3.42,0,0,0-.76-.09,3.08,3.08,0,0,0-1.94.72,2.41,2.41,0,0,0-.61.69h0a2.26,2.26,0,0,0-.61-.69,3.05,3.05,0,0,0-1.93-.72,3.35,3.35,0,0,0-.76.09,2.79,2.79,0,0,0-2,2.45A3.83,3.83,0,0,0,65,60.11a40.54,40.54,0,0,0,3.77,3.24l.25.19.15-.08A37.26,37.26,0,0,0,73,60.34,4.23,4.23,0,0,0,74.4,57Z" transform="translate(-12.62 -16.97)"/><path class="cls-6" d="M89,57a2.91,2.91,0,0,0-2.16-2.45,3.42,3.42,0,0,0-.76-.09,3,3,0,0,0-1.93.72,2.26,2.26,0,0,0-.61.69h0a2.36,2.36,0,0,0-.6-.69,3.08,3.08,0,0,0-1.94-.72,3.42,3.42,0,0,0-.76.09A2.81,2.81,0,0,0,78.13,57a3.83,3.83,0,0,0,1.44,3.13,41.88,41.88,0,0,0,3.77,3.24l.26.19.14-.08a37.26,37.26,0,0,0,3.78-3.12A4.25,4.25,0,0,0,89,57Z" transform="translate(-12.62 -16.97)"/><path class="cls-6" d="M23.46,67.89a2.9,2.9,0,0,0-2.16-2.44,3.42,3.42,0,0,0-.76-.09,3.08,3.08,0,0,0-1.94.72,2.31,2.31,0,0,0-.6.68h0a2.36,2.36,0,0,0-.61-.68,3.05,3.05,0,0,0-1.93-.72,3.42,3.42,0,0,0-.76.09,2.78,2.78,0,0,0-2,2.44A3.84,3.84,0,0,0,14.08,71a41.6,41.6,0,0,0,3.77,3.23l.26.2.14-.08A40.17,40.17,0,0,0,22,71.26,4.25,4.25,0,0,0,23.46,67.89Z" transform="translate(-12.62 -16.97)"/><path class="cls-6" d="M38,67.89a2.9,2.9,0,0,0-2.16-2.44,3.42,3.42,0,0,0-.76-.09,3.05,3.05,0,0,0-1.93.72,2.36,2.36,0,0,0-.61.68h0a2.31,2.31,0,0,0-.6-.68A3.08,3.08,0,0,0,30,65.36a3.42,3.42,0,0,0-.76.09,2.79,2.79,0,0,0-2,2.44A3.87,3.87,0,0,0,28.63,71a40.26,40.26,0,0,0,3.78,3.23l.25.2.14-.08a40.17,40.17,0,0,0,3.78-3.12A4.27,4.27,0,0,0,38,67.89Z" transform="translate(-12.62 -16.97)"/><path class="cls-6" d="M52.57,67.89a2.91,2.91,0,0,0-2.17-2.44,3.33,3.33,0,0,0-.75-.09,3.08,3.08,0,0,0-1.94.72,2.52,2.52,0,0,0-.61.68h0a2.36,2.36,0,0,0-.61-.68,3.06,3.06,0,0,0-1.94-.72,3.33,3.33,0,0,0-.75.09,2.78,2.78,0,0,0-2,2.44A3.85,3.85,0,0,0,43.18,71,41.58,41.58,0,0,0,47,74.26l.25.2.15-.08a40.17,40.17,0,0,0,3.77-3.12A4.25,4.25,0,0,0,52.57,67.89Z" transform="translate(-12.62 -16.97)"/><path class="cls-6" d="M67.12,67.89A2.9,2.9,0,0,0,65,65.45a3.42,3.42,0,0,0-.76-.09,3.08,3.08,0,0,0-1.94.72,2.31,2.31,0,0,0-.6.68h0a2.47,2.47,0,0,0-.6-.68,3.08,3.08,0,0,0-1.94-.72,3.42,3.42,0,0,0-.76.09,2.79,2.79,0,0,0-2.05,2.44A3.84,3.84,0,0,0,57.74,71a41.6,41.6,0,0,0,3.77,3.23l.26.2.14-.08a40.17,40.17,0,0,0,3.77-3.12A4.25,4.25,0,0,0,67.12,67.89Z" transform="translate(-12.62 -16.97)"/><path class="cls-6" d="M81.67,67.89a2.9,2.9,0,0,0-2.16-2.44,3.35,3.35,0,0,0-.76-.09,3.05,3.05,0,0,0-1.93.72,2.36,2.36,0,0,0-.61.68h0a2.52,2.52,0,0,0-.61-.68,3.08,3.08,0,0,0-1.94-.72,3.42,3.42,0,0,0-.76.09,2.77,2.77,0,0,0-2,2.44A3.85,3.85,0,0,0,72.29,71a40.26,40.26,0,0,0,3.78,3.23l.25.2.14-.08a38.93,38.93,0,0,0,3.78-3.12A4.23,4.23,0,0,0,81.67,67.89Z" transform="translate(-12.62 -16.97)"/><path class="cls-6" d="M30.74,78.81a2.92,2.92,0,0,0-2.17-2.45,3.33,3.33,0,0,0-.75-.09,3.06,3.06,0,0,0-1.94.72,2.26,2.26,0,0,0-.61.69h0a2.26,2.26,0,0,0-.61-.69,3.06,3.06,0,0,0-1.94-.72,3.33,3.33,0,0,0-.75.09,2.78,2.78,0,0,0-2,2.45,3.85,3.85,0,0,0,1.43,3.13,40.3,40.3,0,0,0,3.78,3.24l.25.19.15-.08a37.26,37.26,0,0,0,3.77-3.12A4.26,4.26,0,0,0,30.74,78.81Z" transform="translate(-12.62 -16.97)"/><path class="cls-6" d="M45.29,78.81a2.91,2.91,0,0,0-2.16-2.45,3.42,3.42,0,0,0-.76-.09,3.08,3.08,0,0,0-1.94.72,2.22,2.22,0,0,0-.6.69h0a2.26,2.26,0,0,0-.61-.69,3.05,3.05,0,0,0-1.93-.72,3.42,3.42,0,0,0-.76.09,2.79,2.79,0,0,0-2.05,2.45,3.83,3.83,0,0,0,1.44,3.13,40.31,40.31,0,0,0,3.77,3.24l.26.19.14-.08a37.26,37.26,0,0,0,3.77-3.12A4.23,4.23,0,0,0,45.29,78.81Z" transform="translate(-12.62 -16.97)"/><path class="cls-6" d="M59.84,78.81a2.91,2.91,0,0,0-2.16-2.45,3.35,3.35,0,0,0-.76-.09A3.05,3.05,0,0,0,55,77a2.26,2.26,0,0,0-.61.69h0a2.41,2.41,0,0,0-.61-.69,3.08,3.08,0,0,0-1.94-.72,3.42,3.42,0,0,0-.76.09,2.81,2.81,0,0,0-2,2.45,3.86,3.86,0,0,0,1.44,3.13,39.06,39.06,0,0,0,3.78,3.24l.25.19.14-.08a36.19,36.19,0,0,0,3.78-3.12A4.25,4.25,0,0,0,59.84,78.81Z" transform="translate(-12.62 -16.97)"/><path class="cls-6" d="M74.4,78.81a2.92,2.92,0,0,0-2.16-2.45,3.42,3.42,0,0,0-.76-.09,3.08,3.08,0,0,0-1.94.72,2.41,2.41,0,0,0-.61.69h0a2.26,2.26,0,0,0-.61-.69,3.05,3.05,0,0,0-1.93-.72,3.35,3.35,0,0,0-.76.09,2.79,2.79,0,0,0-2,2.45A3.83,3.83,0,0,0,65,81.94a39.07,39.07,0,0,0,3.77,3.24l.25.19.15-.08A37.26,37.26,0,0,0,73,82.17,4.23,4.23,0,0,0,74.4,78.81Z" transform="translate(-12.62 -16.97)"/><path class="cls-6" d="M89,78.81a2.91,2.91,0,0,0-2.16-2.45,3.42,3.42,0,0,0-.76-.09A3,3,0,0,0,84.1,77a2.26,2.26,0,0,0-.61.69h0a2.36,2.36,0,0,0-.6-.69,3.08,3.08,0,0,0-1.94-.72,3.42,3.42,0,0,0-.76.09,2.81,2.81,0,0,0-2.05,2.45,3.83,3.83,0,0,0,1.44,3.13,40.31,40.31,0,0,0,3.77,3.24l.26.19.14-.08a37.26,37.26,0,0,0,3.78-3.12A4.25,4.25,0,0,0,89,78.81Z" transform="translate(-12.62 -16.97)"/></g><path class="cls-7" d="M21.61,66.6S47.33,83.46,80,66.6V83H21.61Z" transform="translate(-12.62 -16.97)"/><rect class="cls-8" x="33.39" y="21.37" width="9.38" height="9.73"/><polygon class="cls-9" points="33.39 21.37 34.58 14.09 41.17 14.09 42.77 21.37 33.39 21.37"/><path class="cls-8" d="M50.87,28.43s6.82-9.7,14.66-11.25,5.81,5.93,7.1,10.55c1.8,6.4-3.12,8.07-3.12,8.07s-8.78-6.18-17.76-4.38Z" transform="translate(-12.62 -16.97)"/><path class="cls-10" d="M51.75,31.42s8.76,7.69,17.76,4.38C69.51,35.8,60.81,29.19,51.75,31.42Z" transform="translate(-12.62 -16.97)"/><path class="cls-11" d="M52.63,27.62s7.68-6.28,9.49-5.59S52.63,27.62,52.63,27.62Z" transform="translate(-12.62 -16.97)"/><path class="cls-11" d="M52.69,29S62.35,23.45,64,24.57,52.69,29,52.69,29Z" transform="translate(-12.62 -16.97)"/><path class="cls-11" d="M53.17,29.86s8.45-3,9.35-1.22S53.17,29.86,53.17,29.86Z" transform="translate(-12.62 -16.97)"/><path class="cls-11" d="M72.63,27.73c-1.22-4.36.51-11.25-5.87-10.72,4.1,2.84,1.2,8.72,3.08,11.82s-.33,7-.33,7S74.43,34.13,72.63,27.73Z" transform="translate(-12.62 -16.97)"/><path class="cls-8" d="M49.32,28.48S41.89,19.24,34,18.2s-5.42,6.29-6.41,11C26.18,35.69,31.2,37,31.2,37s8.35-6.73,17.43-5.52Z" transform="translate(-12.62 -16.97)"/><path class="cls-10" d="M48.63,31.52S40.39,39.76,31.2,37C31.2,37,39.45,29.88,48.63,31.52Z" transform="translate(-12.62 -16.97)"/><path class="cls-11" d="M47.51,27.78s-8.07-5.77-9.83-5S47.51,27.78,47.51,27.78Z" transform="translate(-12.62 -16.97)"/><path class="cls-11" d="M47.54,29.12s-10-4.86-11.55-3.64S47.54,29.12,47.54,29.12Z" transform="translate(-12.62 -16.97)"/><path class="cls-11" d="M47.11,30.06s-8.62-2.43-9.4-.62S47.11,30.06,47.11,30.06Z" transform="translate(-12.62 -16.97)"/><path class="cls-11" d="M27.56,29.18c.93-4.42-1.23-11.19,5.17-11.07-3.91,3.1-.64,8.78-2.32,12S31.2,37,31.2,37,26.18,35.69,27.56,29.18Z" transform="translate(-12.62 -16.97)"/><path class="cls-8" d="M55,29.31a4.48,4.48,0,1,1-4.62-4.38A4.51,4.51,0,0,1,55,29.31Z" transform="translate(-12.62 -16.97)"/><path class="cls-11" d="M47.19,32.52A4.46,4.46,0,0,0,55,29.31a4.55,4.55,0,0,0-2.54-3.94C54.29,31.72,47.2,32.52,47.19,32.52Z" transform="translate(-12.62 -16.97)"/></svg>